Coordinates
version=1
nRows=12
nColumns=24
inDegrees=yes

Units are S.I. units (second, meters, Newtons, ...)
Angles are in degrees.

endheader
time	pelvis_tilt	pelvis_list	pelvis_rotation	pelvis_tx	pelvis_ty	pelvis_tz	hip_flexion_r	hip_adduction_r	hip_rotation_r	knee_angle_r	ankle_angle_r	subtalar_angle_r	mtp_angle_r	hip_flexion_l	hip_adduction_l	hip_rotation_l	knee_angle_l	ankle_angle_l	subtalar_angle_l	mtp_angle_l	lumbar_extension	lumbar_bending	lumbar_rotation
      5.16000000	      6.17476375	      1.50323978	     -1.26466749	      0.65011708	      0.90389582	     -0.38594654	      7.50817915	      1.31982380	     -4.55390759	    -61.96630039	      9.23040637	     -3.70966832	      0.00000000	      7.21917758	      5.66272268	      1.76191074	    -14.80076888	     11.33488511	      3.32418394	      0.00000000	    -24.94979832	     -3.61666434	      0.78795934
      5.17000000	      6.10106761	      1.30865513	     -0.96528303	      0.66134586	      0.90577421	     -0.38621004	      8.91532484	      1.41796830	     -4.93200394	    -61.77475761	      9.98966227	     -4.14285505	      0.00000000	      6.09353219	      5.55418061	      2.61865658	    -14.07818151	     11.57491885	      2.83957040	      0.00000000	    -24.88497555	     -3.28942267	      0.52502135
      5.18000000	      6.05644608	      1.14181865	     -0.68877272	      0.67257549	      0.90750654	     -0.38643760	     10.21270956	      1.48533150	     -5.23939693	    -61.27763387	     10.52464839	     -4.80475915	      0.00000000	      4.89408028	      5.46296544	      3.50129848	    -13.26542546	     11.76296043	      2.27637994	      0.00000000	    -24.83931462	     -2.99837052	      0.29712823
      5.19000000	      6.00645355	      1.00287489	     -0.43048953	      0.68381332	      0.90901570	     -0.38663741	     11.43589112	      1.51385490	     -5.49113062	    -60.49816985	     10.89825087	     -5.61762515	      0.00000000	      3.67139056	      5.38512254	      4.39680511	    -12.38899745	     11.88382998	      1.68474971	      0.00000000	    -24.77765082	     -2.74050708	      0.11722999
      5.20000000	      5.95584147	      0.92936763	     -0.25343288	      0.69506104	      0.91024805	     -0.38674505	     12.59466908	      1.48352330	     -5.59680445	    -59.48272326	     11.22774114	     -6.45222959	      0.00000000	      2.37908975	      5.37625019	      5.47792351	    -11.38055119	     11.88661653	      0.64150615	      0.00000000	    -24.71203441	     -2.58022902	     -0.05505836
      5.21000000	      5.89519234	      0.83851047	     -0.10447013	      0.70629465	      0.91122628	     -0.38674066	     13.66842708	      1.49621198	     -5.60221294	    -58.17390785	     11.37881018	     -7.50058538	      0.00000000	      1.13631734	      5.31045836	      6.38941277	    -10.43336845	     11.92904645	     -0.21745322	      0.00000000	    -24.64433688	     -2.41719675	     -0.17704104
      5.22000000	      5.82274922	      0.75626342	      0.01209629	      0.71749651	      0.91193035	     -0.38662702	     14.66507245	      1.52130936	     -5.49992971	    -56.59825693	     11.42488484	     -8.61155429	      0.00000000	     -0.06098174	      5.22788025	      7.21965668	     -9.53599628	     11.98286080	     -1.04335825	      0.00000000	    -24.58227769	     -2.27529247	     -0.29629207
      5.23000000	      5.73960342	      0.68671579	      0.11460787	      0.72865310	      0.91236667	     -0.38641162	     15.57775797	      1.55079227	     -5.30441619	    -54.75858031	     11.36956659	     -9.73188169	      0.00000000	     -1.20394067	      5.13593889	      7.99247217	     -8.70848560	     12.06205444	     -1.82816155	      0.00000000	    -24.53471259	     -2.15867332	     -0.42938301
      5.24000000	      5.66111383	      0.62314254	      0.24380688	      0.73975981	      0.91258590	     -0.38609947	     16.37003795	      1.58815892	     -5.04834491	    -52.63205014	     11.19468961	    -10.90083036	      0.00000000	     -2.23575071	      5.01325058	      8.39260565	     -8.07481697	     12.34565163	     -2.06617342	      0.00000000	    -24.52146436	     -2.04938956	     -0.63438124
      5.25000000	      5.56904642	      0.62849700	      0.31534727	      0.75084688	      0.91251624	     -0.38565739	     17.08781698	      1.57628530	     -4.63759631	    -50.28746266	     10.90707743	    -11.96605674	      0.00000000	     -3.33992356	      4.97127950	      9.26771683	     -7.29300207	     12.38318615	     -3.06633500	      0.00000000	    -24.50742203	     -2.04474282	     -0.80262022
      5.26000000	      5.52965310	      0.65079561	      0.46733167	      0.76189229	      0.91233016	     -0.38517578	     17.60896203	      1.53869140	     -4.22117726	    -47.64805871	     10.54018756	    -13.04564138	      0.00000000	     -4.34992714	      4.90768865	      9.61032944	     -6.76788157	     12.72265253	     -3.22419674	      0.00000000	    -24.58852132	     -2.03998803	     -1.11739985
      5.27000000	      5.46829111	      0.75496891	      0.57273294	      0.77294039	      0.91186423	     -0.38453246	     18.05533932	      1.43593012	     -3.66111540	    -44.80311811	     10.02883675	    -14.11305039	      0.00000000	     -5.37258105	      4.92688604	     10.11448336	     -6.18386201	     12.98796730	     -3.69367184	      0.00000000	    -24.65789495	     -2.16425168	     -1.41905517
